HIERARCHY
ROOT hip
{
	OFFSET 0.000000 0.000000 0.000000 
	CHANNELS 6 Xposition Yposition Zposition Zrotation Yrotation Xrotation
	JOINT abdomen
	{
		OFFSET 0.000000 20.688101 -0.731520 
		CHANNELS 3 Zrotation Xrotation Yrotation
		JOINT chest
		{
			OFFSET 0.000000 11.704300 -0.487680 
			CHANNELS 3 Zrotation Xrotation Yrotation
			JOINT neck
			{
				OFFSET 0.000000 22.189400 -2.194560 
				CHANNELS 3 Zrotation Xrotation Yrotation
				JOINT head
				{
					OFFSET -0.243840 7.071330 1.219200 
					CHANNELS 3 Zrotation Xrotation Yrotation
					JOINT leftEye
					{
						OFFSET 4.145280 8.046740 8.046720 
						CHANNELS 3 Zrotation Xrotation Yrotation
						End Site
						{
							OFFSET 1.000000 0.000000 0.000000 
						}
					}
					JOINT rightEye
					{
						OFFSET -3.657600 8.046740 8.046720 
						CHANNELS 3 Zrotation Xrotation Yrotation
						End Site
						{
							OFFSET 1.000000 0.000000 0.000000 
						}
					}
				}
			}
			JOINT rCollar
			{
				OFFSET -2.682240 19.263399 -4.876800 
				CHANNELS 3 Zrotation Xrotation Yrotation
				JOINT rShldr
				{
					OFFSET -8.778240 -1.950730 1.463040 
					CHANNELS 3 Zrotation Xrotation Yrotation
					JOINT rForeArm
					{
						OFFSET -28.174200 -1.711500 0.487680 
						CHANNELS 3 Zrotation Xrotation Yrotation
						JOINT rHand
						{
							OFFSET -22.587900 0.773209 7.071360 
							CHANNELS 3 Zrotation Xrotation Yrotation
							JOINT rThumb1
							{
								OFFSET -1.219200 -0.487915 3.413760 
								CHANNELS 3 Zrotation Xrotation Yrotation
								JOINT rThumb2
								{
									OFFSET -3.370350 -0.524490 3.413760 
									CHANNELS 3 Zrotation Xrotation Yrotation
									End Site
									{
										OFFSET -1.782710 -1.182140 1.430490 
									}
								}
							}
							JOINT rIndex1
							{
								OFFSET -7.759470 0.938293 5.608320 
								CHANNELS 3 Zrotation Xrotation Yrotation
								JOINT rIndex2
								{
									OFFSET -2.540570 -0.884171 1.565380 
									CHANNELS 3 Zrotation Xrotation Yrotation
									End Site
									{
										OFFSET -1.625190 -0.234802 1.165020 
									}
								}
							}
							JOINT rMid1
							{
								OFFSET -8.247140 1.182130 3.413760 
								CHANNELS 3 Zrotation Xrotation Yrotation
								JOINT rMid2
								{
									OFFSET -3.101650 -0.590103 1.064700 
									CHANNELS 3 Zrotation Xrotation Yrotation
									End Site
									{
										OFFSET -2.485470 -0.328903 0.837420 
									}
								}
							}
							JOINT rRing1
							{
								OFFSET -8.828220 0.546677 1.516780 
								CHANNELS 3 Zrotation Xrotation Yrotation
								JOINT rRing2
								{
									OFFSET -2.609340 -0.819778 -0.019849 
									CHANNELS 3 Zrotation Xrotation Yrotation
									End Site
									{
										OFFSET -2.338420 -0.294052 0.168128 
									}
								}
							}
							JOINT rPinky1
							{
								OFFSET -8.272020 -0.047791 -0.458400 
								CHANNELS 3 Zrotation Xrotation Yrotation
								JOINT rPinky2
								{
									OFFSET -1.827340 -0.647385 -0.700984 
									CHANNELS 3 Zrotation Xrotation Yrotation
									End Site
									{
										OFFSET -1.692250 -0.517670 -0.607171 
									}
								}
							}
						}
					}
				}
			}
			JOINT lCollar
			{
				OFFSET 2.682240 19.263399 -4.876800 
				CHANNELS 3 Zrotation Xrotation Yrotation
				JOINT lShldr
				{
					OFFSET 8.778240 -1.950730 1.463040 
					CHANNELS 3 Zrotation Xrotation Yrotation
					JOINT lForeArm
					{
						OFFSET 28.174200 -1.711500 0.487680 
						CHANNELS 3 Zrotation Xrotation Yrotation
						JOINT lHand
						{
							OFFSET 22.587900 0.773209 7.071360 
							CHANNELS 3 Zrotation Xrotation Yrotation
							JOINT lThumb1
							{
								OFFSET 1.219200 -0.487915 3.413760 
								CHANNELS 3 Zrotation Xrotation Yrotation
								JOINT lThumb2
								{
									OFFSET 3.370350 -0.524490 3.413760 
									CHANNELS 3 Zrotation Xrotation Yrotation
									End Site
									{
										OFFSET 1.782710 -1.182140 1.430490 
									}
								}
							}
							JOINT lIndex1
							{
								OFFSET 7.759470 0.938293 5.608320 
								CHANNELS 3 Zrotation Xrotation Yrotation
								JOINT lIndex2
								{
									OFFSET 2.540570 -0.884171 1.565380 
									CHANNELS 3 Zrotation Xrotation Yrotation
									End Site
									{
										OFFSET 1.625190 -0.234802 1.165020 
									}
								}
							}
							JOINT lMid1
							{
								OFFSET 8.247140 1.182130 3.413760 
								CHANNELS 3 Zrotation Xrotation Yrotation
								JOINT lMid2
								{
									OFFSET 3.101650 -0.590103 1.064700 
									CHANNELS 3 Zrotation Xrotation Yrotation
									End Site
									{
										OFFSET 2.485470 -0.328903 0.837420 
									}
								}
							}
							JOINT lRing1
							{
								OFFSET 8.828220 0.546677 1.516780 
								CHANNELS 3 Zrotation Xrotation Yrotation
								JOINT lRing2
								{
									OFFSET 2.609340 -0.819778 -0.019849 
									CHANNELS 3 Zrotation Xrotation Yrotation
									End Site
									{
										OFFSET 2.338420 -0.294052 0.168128 
									}
								}
							}
							JOINT lPinky1
							{
								OFFSET 8.272020 -0.047791 -0.458400 
								CHANNELS 3 Zrotation Xrotation Yrotation
								JOINT lPinky2
								{
									OFFSET 1.827340 -0.647385 -0.700984 
									CHANNELS 3 Zrotation Xrotation Yrotation
									End Site
									{
										OFFSET 1.692250 -0.517670 -0.607171 
									}
								}
							}
						}
					}
				}
			}
		}
	}
	JOINT rButtock
	{
		OFFSET -8.778240 4.350840 1.219200 
		CHANNELS 3 Zrotation Xrotation Yrotation
		JOINT rThigh
		{
			OFFSET 0.000000 -1.706870 -2.194560 
			CHANNELS 3 Zrotation Xrotation Yrotation
			JOINT rShin
			{
				OFFSET 0.000000 -36.819901 0.731520 
				CHANNELS 3 Zrotation Xrotation Yrotation
				JOINT rFoot
				{
					OFFSET 0.731520 -45.110401 -5.120640 
					CHANNELS 3 Zrotation Xrotation Yrotation
					End Site
					{
						OFFSET -1.122100 -3.699640 12.103000 
					}
				}
			}
		}
	}
	JOINT lButtock
	{
		OFFSET 8.778240 4.350840 1.219200 
		CHANNELS 3 Zrotation Xrotation Yrotation
		JOINT lThigh
		{
			OFFSET 0.000000 -1.706870 -2.194560 
			CHANNELS 3 Zrotation Xrotation Yrotation
			JOINT lShin
			{
				OFFSET 0.000000 -36.819901 0.731520 
				CHANNELS 3 Zrotation Xrotation Yrotation
				JOINT lFoot
				{
					OFFSET -0.731520 -45.110401 -5.120640 
					CHANNELS 3 Zrotation Xrotation Yrotation
					End Site
					{
						OFFSET 1.122100 -3.699640 12.103000 
					}
				}
			}
		}
	}
}
MOTION
Frames: 7
Frame Time: 0.008333
92.463699 83.997597 96.872902 -179.473999 8.294300 -177.529007 -4.130940 -1.550570 0.077240 0.678307 -0.116092 0.123843 -1.457330 0.015852 -1.321770 -0.368145 -4.566990 -2.088500 -0.000000 0.000000 0.000000 -0.000000 0.000000 0.000000 -0.000000 -0.000000 -0.000000 8.719260 -13.403200 28.409901 -8.344570 -3.959880 13.799200 -0.002682 2.911370 0.409167 -0.000000 0.000000 0.000000 -0.000000 0.000000 0.000000 -0.000000 0.000000 0.000000 7.730910 5.474880 0.417314 -0.000000 0.000000 0.000000 2.905540 0.965183 0.102902 -0.000000 0.000000 0.000000 10.278600 0.731801 0.025912 -0.000000 0.000000 0.000000 2.221670 -0.733487 -0.208920 -0.000000 -0.000000 -0.000000 -13.914000 11.248200 -36.059399 7.316760 -3.251930 -12.191300 0.002578 3.028230 -0.425552 0.000000 -0.000000 0.000000 0.000000 -0.000000 0.000000 0.000000 -0.000000 0.000000 -7.730910 5.474880 -0.417314 0.000000 -0.000000 0.000000 -2.905540 0.965183 -0.102902 0.000000 -0.000000 0.000000 -10.278600 0.731801 -0.025912 0.000000 -0.000000 0.000000 -2.221670 -0.733487 0.208920 -0.000000 0.000000 -0.000000 -5.549320 -21.262100 3.304330 -0.041063 17.301800 0.208021 -0.554622 1.115400 -4.538080 0.000000 0.000000 0.000000 -1.645200 -0.715077 -3.772480 0.000858 8.950200 -0.146215 0.870106 -5.995140 3.401450 
92.539497 84.024803 96.138802 -179.516998 7.813300 -177.602005 -6.298100 -2.277860 0.110659 0.912894 -0.158576 0.169615 -2.113990 0.042658 -1.924990 -0.678454 -6.672220 -3.056780 -0.000000 0.000000 0.000000 -0.000000 0.000000 0.000000 -0.000000 -0.000000 -0.000000 16.996500 -16.725000 42.373001 -11.535300 -5.580780 20.168301 -0.018069 4.289080 0.603690 -0.000000 0.000000 0.000000 -0.000000 0.000000 0.000000 -0.000000 0.000000 0.000000 7.730910 5.474880 0.417314 -0.000000 0.000000 0.000000 2.905540 0.965183 0.102902 -0.000000 0.000000 0.000000 10.278600 0.731801 0.025912 -0.000000 0.000000 0.000000 2.221670 -0.733487 -0.208920 -0.000000 -0.000000 -0.000000 -16.059299 12.442500 -53.196499 10.221700 -4.626890 -17.826700 0.018641 4.396330 -0.618792 0.000000 -0.000000 0.000000 0.000000 -0.000000 0.000000 0.000000 -0.000000 0.000000 -7.730910 5.474880 -0.417314 0.000000 -0.000000 0.000000 -2.905540 0.965183 -0.102902 0.000000 -0.000000 0.000000 -10.278600 0.731801 -0.025912 0.000000 -0.000000 0.000000 -2.221670 -0.733487 0.208920 -0.000000 0.000000 -0.000000 -7.797670 -28.857500 5.212590 -0.097999 23.855400 0.318451 -0.603020 0.805952 -6.714100 0.000000 0.000000 0.000000 -2.287500 0.059225 -5.513260 0.024201 13.630800 -0.249371 1.427950 -10.389900 5.063390 
92.603302 84.041702 95.526398 -179.639999 7.072400 -177.511002 -7.803690 -2.849930 0.155253 1.075230 -0.156384 0.209505 -2.530700 0.132390 -2.336010 -1.045740 -8.198120 -3.739370 -0.000000 0.000000 0.000000 -0.000000 0.000000 0.000000 -0.000000 -0.000000 -0.000000 23.866400 -17.392700 52.244598 -13.529200 -6.580840 24.611700 -0.035994 5.407200 0.762219 -0.000000 0.000000 0.000000 -0.000000 0.000000 0.000000 -0.000000 0.000000 0.000000 7.730910 5.474880 0.417314 -0.000000 0.000000 0.000000 2.905540 0.965183 0.102902 -0.000000 0.000000 0.000000 10.278600 0.731801 0.025912 -0.000000 0.000000 0.000000 2.221670 -0.733487 -0.208920 -0.000000 -0.000000 -0.000000 -16.914499 11.121700 -64.953400 12.115900 -5.530300 -21.834499 0.034291 5.278180 -0.743926 0.000000 -0.000000 0.000000 0.000000 -0.000000 0.000000 0.000000 -0.000000 0.000000 -7.730910 5.474880 -0.417314 0.000000 -0.000000 0.000000 -2.905540 0.965183 -0.102902 0.000000 -0.000000 0.000000 -10.278600 0.731801 -0.025912 0.000000 -0.000000 0.000000 -2.221670 -0.733487 0.208920 -0.000000 0.000000 -0.000000 -8.984170 -34.151299 6.929810 -0.150249 28.058300 0.394647 -0.651655 0.637773 -8.418520 0.000000 0.000000 0.000000 -2.666970 0.790719 -6.735140 0.049567 16.664400 -0.318800 1.948380 -13.362400 6.206200 
92.613503 84.042702 94.989700 -179.882004 6.126500 -177.179993 -8.372050 -3.224550 0.230222 1.132590 -0.077257 0.245483 -2.597720 0.335150 -2.475570 -1.447180 -8.942560 -4.011930 -0.000000 0.000000 0.000000 -0.000000 0.000000 0.000000 -0.000000 -0.000000 -0.000000 26.828100 -17.366100 56.083302 -14.235600 -6.918180 26.297899 -0.049728 6.206010 0.875788 -0.000000 0.000000 0.000000 -0.000000 0.000000 0.000000 -0.000000 0.000000 0.000000 7.730910 5.474880 0.417314 -0.000000 0.000000 0.000000 2.905540 0.965183 0.102902 -0.000000 0.000000 0.000000 10.278600 0.731801 0.025912 -0.000000 0.000000 0.000000 2.221670 -0.733487 -0.208920 -0.000000 -0.000000 -0.000000 -17.140200 10.191500 -69.533699 12.887000 -5.909520 -23.539700 0.038867 5.455590 -0.769219 0.000000 -0.000000 0.000000 0.000000 -0.000000 0.000000 0.000000 -0.000000 0.000000 -7.730910 5.474880 -0.417314 0.000000 -0.000000 0.000000 -2.905540 0.965183 -0.102902 0.000000 -0.000000 0.000000 -10.278600 0.731801 -0.025912 0.000000 -0.000000 0.000000 -2.221670 -0.733487 0.208920 -0.000000 0.000000 -0.000000 -9.281610 -36.293800 7.997190 -0.164281 28.949499 0.405165 -0.663533 0.708623 -9.404690 0.000000 0.000000 0.000000 -2.722400 1.468560 -7.222960 0.058734 17.395000 -0.335221 2.143390 -14.379900 6.573890 
92.629898 84.056297 94.285202 -180.113998 5.651100 -177.100006 -8.271340 -3.457200 0.326194 1.115000 0.056136 0.278462 -2.416690 0.617504 -2.421400 -1.852830 -9.129380 -3.987680 -0.000000 0.000000 0.000000 -0.000000 0.000000 0.000000 -0.000000 -0.000000 0.000000 26.744301 -17.653400 55.697399 -14.106500 -6.841230 26.003300 -0.058571 6.774680 0.956730 -0.000000 0.000000 0.000000 -0.000000 0.000000 0.000000 -0.000000 0.000000 0.000000 7.730910 5.474880 0.417314 -0.000000 0.000000 0.000000 2.905540 0.965183 0.102902 -0.000000 0.000000 0.000000 10.278600 0.731801 0.025912 -0.000000 0.000000 0.000000 2.221670 -0.733487 -0.208920 -0.000000 -0.000000 0.000000 -16.895000 10.563400 -69.292603 12.923200 -5.954910 -23.591700 0.034008 5.131000 -0.723156 0.000000 -0.000000 0.000000 0.000000 -0.000000 0.000000 0.000000 -0.000000 0.000000 -7.730910 5.474880 -0.417314 0.000000 -0.000000 0.000000 -2.905540 0.965183 -0.102902 0.000000 -0.000000 0.000000 -10.278600 0.731801 -0.025912 0.000000 -0.000000 0.000000 -2.221670 -0.733487 0.208920 -0.000000 0.000000 -0.000000 -9.146770 -36.208599 8.462260 -0.146303 27.476200 0.365878 -0.641487 0.947185 -9.880780 0.000000 0.000000 0.000000 -2.562820 2.109990 -7.186790 0.053004 16.480301 -0.312494 2.045370 -14.009000 6.365400 
92.745499 84.072197 93.603500 -180.003006 5.258200 -177.016998 -7.921300 -3.601260 0.406964 1.073330 0.188216 0.303326 -2.159770 0.891856 -2.293570 -2.211820 -9.054760 -3.841050 -0.000000 0.000000 0.000000 -0.000000 0.000000 0.000000 -0.000000 -0.000000 0.000000 25.379999 -18.057800 53.598099 -13.649700 -6.603820 24.936199 -0.064194 7.180900 1.014590 -0.000000 0.000000 0.000000 -0.000000 0.000000 0.000000 -0.000000 0.000000 0.000000 7.730910 5.474880 0.417314 -0.000000 0.000000 0.000000 2.905540 0.965183 0.102902 -0.000000 0.000000 0.000000 10.278600 0.731801 0.025912 -0.000000 0.000000 0.000000 2.221670 -0.733487 -0.208920 -0.000000 -0.000000 0.000000 -16.476801 11.528900 -67.150200 12.664600 -5.865860 -22.970800 0.026932 4.643700 -0.654093 0.000000 0.000000 -0.000000 0.000000 0.000000 -0.000000 0.000000 0.000000 -0.000000 -7.730910 5.474880 -0.417314 0.000000 0.000000 -0.000000 -2.905540 0.965183 -0.102902 0.000000 0.000000 -0.000000 -10.278600 0.731801 -0.025912 0.000000 0.000000 -0.000000 -2.221670 -0.733487 0.208920 -0.000000 0.000000 -0.000000 -8.890460 -35.218601 8.690540 -0.120070 25.091000 0.310938 -0.620834 1.183640 -10.246200 0.000000 0.000000 0.000000 -2.324260 2.733660 -6.953100 0.042779 14.903600 -0.274439 1.825390 -13.072800 5.883260 
92.874702 84.089104 92.971100 -179.893005 4.586000 -176.880005 -7.741740 -3.710160 0.436319 1.058560 0.263403 0.314955 -1.996550 1.070500 -2.212090 -2.477400 -9.014600 -3.747540 -0.000000 0.000000 0.000000 -0.000000 0.000000 0.000000 -0.000000 -0.000000 0.000000 24.551399 -18.295200 52.300400 -13.374700 -6.460890 24.304399 -0.069347 7.492340 1.059080 -0.000000 0.000000 0.000000 -0.000000 0.000000 0.000000 -0.000000 0.000000 0.000000 7.730910 5.474880 0.417314 -0.000000 0.000000 0.000000 2.905540 0.965183 0.102902 -0.000000 0.000000 0.000000 10.278600 0.731801 0.025912 -0.000000 0.000000 0.000000 2.221670 -0.733487 -0.208920 -0.000000 -0.000000 0.000000 -16.147600 12.186400 -65.971603 12.539600 -5.834370 -22.659401 0.023083 4.333030 -0.610143 -0.000000 0.000000 -0.000000 -0.000000 0.000000 -0.000000 -0.000000 0.000000 -0.000000 -7.730910 5.474880 -0.417314 -0.000000 0.000000 -0.000000 -2.905540 0.965183 -0.102902 -0.000000 0.000000 -0.000000 -10.278600 0.731801 -0.025912 -0.000000 0.000000 -0.000000 -2.221670 -0.733487 0.208920 -0.000000 0.000000 -0.000000 -8.753370 -34.634300 9.091360 -0.102734 23.246700 0.270595 -0.637564 1.248070 -10.899800 0.000000 0.000000 0.000000 -2.127930 3.356370 -6.848850 0.036138 13.647800 -0.243931 1.645500 -12.396200 5.426690 
